<?xml version="1.0" encoding="utf-8"?>
<!-- Generator: Adobe Illustrator 23.0.3, SVG Export Plug-In . SVG Version: 6.00 Build 0)  -->
<svg version="1.1" id="Layer_1" xmlns="http://www.w3.org/2000/svg" xmlns:xlink="http://www.w3.org/1999/xlink" x="0px" y="0px"
	 viewBox="0 0 841.9 595.3" style="enable-background:new 0 0 841.9 595.3;" xml:space="preserve">
<style type="text/css">
	.st0{fill:#FFFFFF;}
	.st1{fill:#00A495;}
	.st2{fill:#CF0039;}
</style>
<g>
	<g>
		<path d="M346.8,406.1v-6.7c-1.9,2.2-4,3.9-6.5,5.2c-2.5,1.3-5.1,1.9-7.8,1.9c-3,0-5.9-0.6-8.5-1.7c-2.7-1.1-5-2.7-7-4.7
			c-2-2-3.6-4.3-4.8-7.1c-1.1-2.7-1.7-5.6-1.7-8.5c0-3,0.6-5.8,1.7-8.5c1.1-2.7,2.7-5.1,4.8-7.1c2-2,4.4-3.6,7-4.7s5.5-1.7,8.5-1.7
			c2.8,0,5.4,0.6,7.9,1.8c2.5,1.2,4.6,2.8,6.3,4.9v-5.8h7.9v42.7H346.8z M326.9,371.3c-1.8,0.7-3.3,1.7-4.6,3
			c-1.3,1.3-2.3,2.8-3,4.6c-0.7,1.8-1.1,3.6-1.1,5.6c0,1.9,0.4,3.8,1.1,5.5c0.7,1.8,1.7,3.3,3,4.6c1.3,1.3,2.8,2.3,4.6,3
			c1.8,0.7,3.6,1.1,5.6,1.1c1.9,0,3.8-0.4,5.5-1.1c1.8-0.7,3.3-1.7,4.6-3c1.3-1.3,2.3-2.8,3-4.6c0.7-1.8,1.1-3.6,1.1-5.5
			c0-1.9-0.4-3.8-1.1-5.6c-0.7-1.8-1.7-3.3-3-4.6c-1.3-1.3-2.8-2.3-4.6-3c-1.8-0.7-3.6-1.1-5.5-1.1
			C330.5,370.2,328.7,370.6,326.9,371.3z"/>
		<path d="M362.5,406.1V399l24.6-28.6h-24.6v-7.8H398v7.2l-24.5,28.5H398v7.8H362.5z"/>
		<path d="M407.1,354.8c-0.8-0.8-1.2-1.7-1.2-2.8c0-1.1,0.4-2.1,1.2-2.8c0.8-0.8,1.7-1.2,2.8-1.2c1.1,0,2.1,0.4,2.8,1.2
			s1.2,1.7,1.2,2.8c0,1.1-0.4,2.1-1.2,2.8c-0.8,0.8-1.7,1.2-2.8,1.2C408.8,356,407.8,355.6,407.1,354.8z M406.3,406.1v-43.8h7.4
			v43.8H406.3z"/>
		<path d="M473.1,406.1v-27.4c0-2.4-0.8-4.4-2.5-6c-1.7-1.6-3.7-2.5-6.1-2.5c-2.3,0-4.4,0.8-6.1,2.5c-1.7,1.6-2.5,3.6-2.5,6v27.5h-8
			v-27.5c0-2.5-0.8-4.4-2.5-6c-1.8-1.6-3.8-2.5-6.2-2.5c-2.3,0-4.3,0.8-6,2.5c-1.8,1.8-2.6,3.8-2.6,6.2v27.2h-7.9v-42.7h7.9v3.2
			c1-1.2,2.3-2.2,3.9-3.1c1.6-0.8,3.2-1.2,4.7-1.2c2.6,0,4.9,0.5,7.1,1.5c2.1,1,4,2.4,5.6,4.2c1.6-1.8,3.4-3.2,5.6-4.2
			c2.2-1,4.5-1.5,7.1-1.5c2.3,0,4.4,0.4,6.4,1.2c2,0.8,3.7,2,5.3,3.5c1.5,1.5,2.7,3.3,3.5,5.3c0.8,2,1.3,4.1,1.3,6.3v27.4H473.1z"/>
		<path d="M523.6,406.1v-6.7c-1.9,2.2-4,3.9-6.5,5.2c-2.5,1.3-5.1,1.9-7.8,1.9c-3,0-5.9-0.6-8.5-1.7c-2.7-1.1-5-2.7-7-4.7
			c-2-2-3.6-4.3-4.8-7.1c-1.1-2.7-1.7-5.6-1.7-8.5c0-3,0.6-5.8,1.7-8.5c1.1-2.7,2.7-5.1,4.8-7.1c2-2,4.4-3.6,7-4.7s5.5-1.7,8.5-1.7
			c2.8,0,5.4,0.6,7.9,1.8c2.5,1.2,4.6,2.8,6.3,4.9v-5.8h7.9v42.7H523.6z M503.8,371.3c-1.8,0.7-3.3,1.7-4.6,3
			c-1.3,1.3-2.3,2.8-3,4.6c-0.7,1.8-1.1,3.6-1.1,5.6c0,1.9,0.4,3.8,1.1,5.5c0.7,1.8,1.7,3.3,3,4.6c1.3,1.3,2.8,2.3,4.6,3
			c1.8,0.7,3.6,1.1,5.6,1.1c1.9,0,3.8-0.4,5.5-1.1c1.8-0.7,3.3-1.7,4.6-3c1.3-1.3,2.3-2.8,3-4.6c0.7-1.8,1.1-3.6,1.1-5.5
			c0-1.9-0.4-3.8-1.1-5.6c-0.7-1.8-1.7-3.3-3-4.6c-1.3-1.3-2.8-2.3-4.6-3c-1.8-0.7-3.6-1.1-5.5-1.1
			C507.4,370.2,505.5,370.6,503.8,371.3z M512.1,358h-5.9l3.2-12.1h6.8L512.1,358z"/>
	</g>
	<path d="M499.7,267.2l-78.4-78.4l-0.3,0.3l-0.3-0.3l-78.4,78.4c-11.6,11.6-12.3,30.5-1,42.3c11.7,12.3,31.1,12.5,43,0.6l20.8-20.8
		c8.9-8.9,23.2-8.9,32,0l20.8,20.8c11.9,11.9,31.3,11.7,43-0.6C512,297.7,511.3,278.8,499.7,267.2z"/>
	<path d="M408,315.9c1,1.2,2.1,2.3,3.1,3.4c1.4,1.6,3,3,4.3,4.7c2,2.7,3.2,5.9,4,9.2c0.6,2.3,1.1,4.6,1.6,6.9
		c0.5-3.3,1.3-6.5,2.4-9.7c1.3-3.6,3-6.9,5.9-9.5c1.5-1.4,2.8-2.9,4.1-4.3c2.8-3.1,4.6-6.7,4.8-10.9c0.2-3.3-0.1-6.4-1.9-9.3
		c-4.8-8.2-14.8-10.7-22.6-7.2c-6.3,2.8-10,7.5-10.1,14.7C403.6,308.4,405,312.4,408,315.9z"/>
</g>
</svg>
